<svg width="282" height="50" viewBox="0 0 282 50" fill="none" xmlns="http://www.w3.org/2000/svg">
<circle cx="25" cy="25" r="25" fill="#1E2B67"/>
<circle cx="28" cy="27" r="17" fill="#4983F4"/>
<circle cx="31" cy="29" r="10" fill="white"/>
<path d="M73.4414 20.1172C73.168 18.9375 72.5 18.1133 71.4375 17.6445C70.8438 17.3867 70.1836 17.2578 69.457 17.2578C68.0664 17.2578 66.9219 17.7852 66.0234 18.8398C65.1328 19.8867 64.6875 21.4648 64.6875 23.5742C64.6875 25.6992 65.1719 27.2031 66.1406 28.0859C67.1094 28.9688 68.2109 29.4102 69.4453 29.4102C70.6562 29.4102 71.6484 29.0625 72.4219 28.3672C73.1953 27.6641 73.6719 26.7461 73.8516 25.6133H69.8555V22.7305H77.0508V32H74.6602L74.2969 29.8438C73.6016 30.6641 72.9766 31.2422 72.4219 31.5781C71.4688 32.1641 70.2969 32.457 68.9062 32.457C66.6172 32.457 64.7422 31.6641 63.2812 30.0781C61.7578 28.4844 60.9961 26.3047 60.9961 23.5391C60.9961 20.7422 61.7656 18.5 63.3047 16.8125C64.8438 15.125 66.8789 14.2812 69.4102 14.2812C71.6055 14.2812 73.3672 14.8398 74.6953 15.957C76.0312 17.0664 76.7969 18.4531 76.9922 20.1172H73.4414ZM85.2773 21.6406C84.5039 21.6406 83.9023 21.8828 83.4727 22.3672C83.0508 22.8516 82.7852 23.5078 82.6758 24.3359H87.8672C87.8125 23.4531 87.543 22.7852 87.0586 22.332C86.582 21.8711 85.9883 21.6406 85.2773 21.6406ZM85.2773 18.8867C86.3398 18.8867 87.2969 19.0859 88.1484 19.4844C89 19.8828 89.7031 20.5117 90.2578 21.3711C90.7578 22.1289 91.082 23.0078 91.2305 24.0078C91.3164 24.5938 91.3516 25.4375 91.3359 26.5391H82.5938C82.6406 27.8203 83.043 28.7188 83.8008 29.2344C84.2617 29.5547 84.8164 29.7148 85.4648 29.7148C86.1523 29.7148 86.7109 29.5195 87.1406 29.1289C87.375 28.918 87.582 28.625 87.7617 28.25H91.1719C91.0859 29.0078 90.6914 29.7773 89.9883 30.5586C88.8945 31.8008 87.3633 32.4219 85.3945 32.4219C83.7695 32.4219 82.3359 31.8984 81.0938 30.8516C79.8516 29.8047 79.2305 28.1016 79.2305 25.7422C79.2305 23.5312 79.7891 21.8359 80.9062 20.6562C82.0312 19.4766 83.4883 18.8867 85.2773 18.8867ZM100.676 18.9219C101.996 18.9219 103.074 19.2695 103.91 19.9648C104.754 20.6523 105.176 21.7969 105.176 23.3984V32H101.754V24.2305C101.754 23.5586 101.664 23.043 101.484 22.6836C101.156 22.0273 100.531 21.6992 99.6094 21.6992C98.4766 21.6992 97.6992 22.1797 97.2773 23.1406C97.0586 23.6484 96.9492 24.2969 96.9492 25.0859V32H93.6211V19.25H96.8438V21.1133C97.2734 20.457 97.6797 19.9844 98.0625 19.6953C98.75 19.1797 99.6211 18.9219 100.676 18.9219ZM114 29.6445C114.977 29.6445 115.727 29.2969 116.25 28.6016C116.773 27.9062 117.035 26.918 117.035 25.6367C117.035 24.3555 116.773 23.3711 116.25 22.6836C115.727 21.9883 114.977 21.6406 114 21.6406C113.023 21.6406 112.27 21.9883 111.738 22.6836C111.215 23.3711 110.953 24.3555 110.953 25.6367C110.953 26.918 111.215 27.9062 111.738 28.6016C112.27 29.2969 113.023 29.6445 114 29.6445ZM120.539 25.6367C120.539 27.5117 120 29.1172 118.922 30.4531C117.844 31.7812 116.207 32.4453 114.012 32.4453C111.816 32.4453 110.18 31.7812 109.102 30.4531C108.023 29.1172 107.484 27.5117 107.484 25.6367C107.484 23.793 108.023 22.1953 109.102 20.8438C110.18 19.4922 111.816 18.8164 114.012 18.8164C116.207 18.8164 117.844 19.4922 118.922 20.8438C120 22.1953 120.539 23.793 120.539 25.6367ZM137.215 18.9453C137.777 18.9453 138.332 19.0547 138.879 19.2734C139.426 19.4922 139.922 19.875 140.367 20.4219C140.727 20.8672 140.969 21.4141 141.094 22.0625C141.172 22.4922 141.211 23.1211 141.211 23.9492L141.188 32H137.766V23.8672C137.766 23.3828 137.688 22.9844 137.531 22.6719C137.234 22.0781 136.688 21.7812 135.891 21.7812C134.969 21.7812 134.332 22.1641 133.98 22.9297C133.801 23.3359 133.711 23.8242 133.711 24.3945V32H130.348V24.3945C130.348 23.6367 130.27 23.0859 130.113 22.7422C129.832 22.125 129.281 21.8164 128.461 21.8164C127.508 21.8164 126.867 22.125 126.539 22.7422C126.359 23.0938 126.27 23.6172 126.27 24.3125V32H122.883V19.25H126.129V21.1133C126.543 20.4492 126.934 19.9766 127.301 19.6953C127.949 19.1953 128.789 18.9453 129.82 18.9453C130.797 18.9453 131.586 19.1602 132.188 19.5898C132.672 19.9883 133.039 20.5 133.289 21.125C133.727 20.375 134.27 19.8242 134.918 19.4727C135.605 19.1211 136.371 18.9453 137.215 18.9453ZM149.332 21.6406C148.559 21.6406 147.957 21.8828 147.527 22.3672C147.105 22.8516 146.84 23.5078 146.73 24.3359H151.922C151.867 23.4531 151.598 22.7852 151.113 22.332C150.637 21.8711 150.043 21.6406 149.332 21.6406ZM149.332 18.8867C150.395 18.8867 151.352 19.0859 152.203 19.4844C153.055 19.8828 153.758 20.5117 154.312 21.3711C154.812 22.1289 155.137 23.0078 155.285 24.0078C155.371 24.5938 155.406 25.4375 155.391 26.5391H146.648C146.695 27.8203 147.098 28.7188 147.855 29.2344C148.316 29.5547 148.871 29.7148 149.52 29.7148C150.207 29.7148 150.766 29.5195 151.195 29.1289C151.43 28.918 151.637 28.625 151.816 28.25H155.227C155.141 29.0078 154.746 29.7773 154.043 30.5586C152.949 31.8008 151.418 32.4219 149.449 32.4219C147.824 32.4219 146.391 31.8984 145.148 30.8516C143.906 29.8047 143.285 28.1016 143.285 25.7422C143.285 23.5312 143.844 21.8359 144.961 20.6562C146.086 19.4766 147.543 18.8867 149.332 18.8867ZM163.852 23.5039C163.852 20.4883 164.66 18.1641 166.277 16.5312C167.684 15.1094 169.473 14.3984 171.645 14.3984C174.551 14.3984 176.676 15.3516 178.02 17.2578C178.762 18.3281 179.16 19.4023 179.215 20.4805H175.605C175.371 19.6523 175.07 19.0273 174.703 18.6055C174.047 17.8555 173.074 17.4805 171.785 17.4805C170.473 17.4805 169.438 18.0117 168.68 19.0742C167.922 20.1289 167.543 21.625 167.543 23.5625C167.543 25.5 167.941 26.9531 168.738 27.9219C169.543 28.8828 170.562 29.3633 171.797 29.3633C173.062 29.3633 174.027 28.9492 174.691 28.1211C175.059 27.6758 175.363 27.0078 175.605 26.1172H179.18C178.867 28 178.066 29.5312 176.777 30.7109C175.496 31.8906 173.852 32.4805 171.844 32.4805C169.359 32.4805 167.406 31.6836 165.984 30.0898C164.562 28.4883 163.852 26.293 163.852 23.5039ZM187.406 29.6445C188.383 29.6445 189.133 29.2969 189.656 28.6016C190.18 27.9062 190.441 26.918 190.441 25.6367C190.441 24.3555 190.18 23.3711 189.656 22.6836C189.133 21.9883 188.383 21.6406 187.406 21.6406C186.43 21.6406 185.676 21.9883 185.145 22.6836C184.621 23.3711 184.359 24.3555 184.359 25.6367C184.359 26.918 184.621 27.9062 185.145 28.6016C185.676 29.2969 186.43 29.6445 187.406 29.6445ZM193.945 25.6367C193.945 27.5117 193.406 29.1172 192.328 30.4531C191.25 31.7812 189.613 32.4453 187.418 32.4453C185.223 32.4453 183.586 31.7812 182.508 30.4531C181.43 29.1172 180.891 27.5117 180.891 25.6367C180.891 23.793 181.43 22.1953 182.508 20.8438C183.586 19.4922 185.223 18.8164 187.418 18.8164C189.613 18.8164 191.25 19.4922 192.328 20.8438C193.406 22.1953 193.945 23.793 193.945 25.6367ZM199.758 32H196.418V14.7266H199.758V32ZM208.758 29.6445C209.734 29.6445 210.484 29.2969 211.008 28.6016C211.531 27.9062 211.793 26.918 211.793 25.6367C211.793 24.3555 211.531 23.3711 211.008 22.6836C210.484 21.9883 209.734 21.6406 208.758 21.6406C207.781 21.6406 207.027 21.9883 206.496 22.6836C205.973 23.3711 205.711 24.3555 205.711 25.6367C205.711 26.918 205.973 27.9062 206.496 28.6016C207.027 29.2969 207.781 29.6445 208.758 29.6445ZM215.297 25.6367C215.297 27.5117 214.758 29.1172 213.68 30.4531C212.602 31.7812 210.965 32.4453 208.77 32.4453C206.574 32.4453 204.938 31.7812 203.859 30.4531C202.781 29.1172 202.242 27.5117 202.242 25.6367C202.242 23.793 202.781 22.1953 203.859 20.8438C204.938 19.4922 206.574 18.8164 208.77 18.8164C210.965 18.8164 212.602 19.4922 213.68 20.8438C214.758 22.1953 215.297 23.793 215.297 25.6367ZM224.637 18.9219C224.699 18.9219 224.75 18.9258 224.789 18.9336C224.836 18.9336 224.934 18.9375 225.082 18.9453V22.3672C224.871 22.3438 224.684 22.3281 224.52 22.3203C224.355 22.3125 224.223 22.3086 224.121 22.3086C222.777 22.3086 221.875 22.7461 221.414 23.6211C221.156 24.1133 221.027 24.8711 221.027 25.8945V32H217.664V19.2266H220.852V21.4531C221.367 20.6016 221.816 20.0195 222.199 19.707C222.824 19.1836 223.637 18.9219 224.637 18.9219ZM246.551 14.7266V17.7852H241.383V32H237.75V17.7852H232.559V14.7266H246.551ZM252.352 29.6445C253.328 29.6445 254.078 29.2969 254.602 28.6016C255.125 27.9062 255.387 26.918 255.387 25.6367C255.387 24.3555 255.125 23.3711 254.602 22.6836C254.078 21.9883 253.328 21.6406 252.352 21.6406C251.375 21.6406 250.621 21.9883 250.09 22.6836C249.566 23.3711 249.305 24.3555 249.305 25.6367C249.305 26.918 249.566 27.9062 250.09 28.6016C250.621 29.2969 251.375 29.6445 252.352 29.6445ZM258.891 25.6367C258.891 27.5117 258.352 29.1172 257.273 30.4531C256.195 31.7812 254.559 32.4453 252.363 32.4453C250.168 32.4453 248.531 31.7812 247.453 30.4531C246.375 29.1172 245.836 27.5117 245.836 25.6367C245.836 23.793 246.375 22.1953 247.453 20.8438C248.531 19.4922 250.168 18.8164 252.363 18.8164C254.559 18.8164 256.195 19.4922 257.273 20.8438C258.352 22.1953 258.891 23.793 258.891 25.6367ZM267.023 29.6445C268 29.6445 268.75 29.2969 269.273 28.6016C269.797 27.9062 270.059 26.918 270.059 25.6367C270.059 24.3555 269.797 23.3711 269.273 22.6836C268.75 21.9883 268 21.6406 267.023 21.6406C266.047 21.6406 265.293 21.9883 264.762 22.6836C264.238 23.3711 263.977 24.3555 263.977 25.6367C263.977 26.918 264.238 27.9062 264.762 28.6016C265.293 29.2969 266.047 29.6445 267.023 29.6445ZM273.562 25.6367C273.562 27.5117 273.023 29.1172 271.945 30.4531C270.867 31.7812 269.23 32.4453 267.035 32.4453C264.84 32.4453 263.203 31.7812 262.125 30.4531C261.047 29.1172 260.508 27.5117 260.508 25.6367C260.508 23.793 261.047 22.1953 262.125 20.8438C263.203 19.4922 264.84 18.8164 267.035 18.8164C269.23 18.8164 270.867 19.4922 271.945 20.8438C273.023 22.1953 273.562 23.793 273.562 25.6367ZM279.375 32H276.035V14.7266H279.375V32Z" fill="black"/>
</svg>
