<svg width="199" height="52" viewBox="0 0 199 52" fill="none" xmlns="http://www.w3.org/2000/svg">
<g clip-path="url(#clip0_77_94)">
<rect width="199" height="52" fill="white"/>
<path d="M70.2168 26.9824H75.8809V34.3848C74.9629 34.6842 74.097 34.8926 73.2832 35.0098C72.4759 35.1335 71.6491 35.1953 70.8027 35.1953C68.6478 35.1953 67.0007 34.5638 65.8613 33.3008C64.7285 32.0312 64.1621 30.2116 64.1621 27.8418C64.1621 25.5371 64.8197 23.7402 66.1348 22.4512C67.4564 21.1621 69.2858 20.5176 71.623 20.5176C73.0879 20.5176 74.5007 20.8105 75.8613 21.3965L74.8555 23.8184C73.8138 23.2975 72.7298 23.0371 71.6035 23.0371C70.2949 23.0371 69.2467 23.4766 68.459 24.3555C67.6712 25.2344 67.2773 26.416 67.2773 27.9004C67.2773 29.4499 67.5931 30.6348 68.2246 31.4551C68.8626 32.2689 69.7871 32.6758 70.998 32.6758C71.6296 32.6758 72.2708 32.6107 72.9219 32.4805V29.502H70.2168V26.9824ZM82.8762 25.9961C82.2447 25.9961 81.7499 26.1979 81.3918 26.6016C81.0337 26.9987 80.8286 27.5651 80.7766 28.3008H84.9563C84.9432 27.5651 84.7512 26.9987 84.3801 26.6016C84.009 26.1979 83.5077 25.9961 82.8762 25.9961ZM83.2961 35.1953C81.5383 35.1953 80.1646 34.7103 79.175 33.7402C78.1854 32.7702 77.6906 31.3965 77.6906 29.6191C77.6906 27.7897 78.1464 26.377 79.0578 25.3809C79.9758 24.3783 81.2421 23.877 82.8566 23.877C84.3996 23.877 85.6008 24.3164 86.4602 25.1953C87.3195 26.0742 87.7492 27.2884 87.7492 28.8379V30.2832H80.7082C80.7408 31.1296 80.9914 31.7904 81.4602 32.2656C81.9289 32.7409 82.5865 32.9785 83.4328 32.9785C84.0904 32.9785 84.7121 32.9102 85.298 32.7734C85.884 32.6367 86.496 32.4186 87.134 32.1191V34.4238C86.6132 34.6842 86.0565 34.8763 85.4641 35C84.8716 35.1302 84.149 35.1953 83.2961 35.1953ZM99.5492 35H96.5707V28.623C96.5707 27.8353 96.4307 27.2461 96.1508 26.8555C95.8708 26.4583 95.4249 26.2598 94.8129 26.2598C93.9796 26.2598 93.3773 26.5397 93.0063 27.0996C92.6352 27.653 92.4496 28.5742 92.4496 29.8633V35H89.4711V24.082H91.7465L92.1469 25.4785H92.3129C92.6449 24.9512 93.1007 24.554 93.6801 24.2871C94.266 24.0137 94.9301 23.877 95.6723 23.877C96.9418 23.877 97.9053 24.222 98.5629 24.9121C99.2204 25.5957 99.5492 26.5853 99.5492 27.8809V35ZM104.289 29.5215C104.289 30.6022 104.464 31.4193 104.816 31.9727C105.174 32.526 105.754 32.8027 106.554 32.8027C107.349 32.8027 107.918 32.5293 108.263 31.9824C108.615 31.429 108.791 30.6087 108.791 29.5215C108.791 28.4408 108.615 27.6302 108.263 27.0898C107.912 26.5495 107.336 26.2793 106.535 26.2793C105.74 26.2793 105.168 26.5495 104.816 27.0898C104.464 27.6237 104.289 28.4342 104.289 29.5215ZM111.838 29.5215C111.838 31.2988 111.369 32.6888 110.431 33.6914C109.494 34.694 108.188 35.1953 106.515 35.1953C105.467 35.1953 104.543 34.9674 103.742 34.5117C102.941 34.0495 102.326 33.3887 101.896 32.5293C101.466 31.6699 101.252 30.6673 101.252 29.5215C101.252 27.7376 101.717 26.3509 102.648 25.3613C103.579 24.3717 104.888 23.877 106.574 23.877C107.622 23.877 108.546 24.1048 109.347 24.5605C110.148 25.0163 110.763 25.6706 111.193 26.5234C111.623 27.3763 111.838 28.3757 111.838 29.5215ZM123.374 35H120.395V28.623C120.395 27.8353 120.262 27.2461 119.995 26.8555C119.735 26.4583 119.321 26.2598 118.755 26.2598C117.993 26.2598 117.44 26.5397 117.095 27.0996C116.749 27.6595 116.577 28.5807 116.577 29.8633V35H113.598V24.082H115.874L116.274 25.4785H116.44C116.733 24.9772 117.156 24.5866 117.71 24.3066C118.263 24.0202 118.898 23.877 119.614 23.877C121.248 23.877 122.355 24.4108 122.934 25.4785H123.198C123.491 24.9707 123.921 24.5768 124.487 24.2969C125.06 24.0169 125.705 23.877 126.421 23.877C127.658 23.877 128.592 24.196 129.223 24.834C129.861 25.4655 130.18 26.4811 130.18 27.8809V35H127.192V28.623C127.192 27.8353 127.059 27.2461 126.792 26.8555C126.531 26.4583 126.118 26.2598 125.552 26.2598C124.822 26.2598 124.276 26.5202 123.911 27.041C123.553 27.5618 123.374 28.3887 123.374 29.5215V35ZM137.068 25.9961C136.437 25.9961 135.942 26.1979 135.584 26.6016C135.226 26.9987 135.021 27.5651 134.969 28.3008H139.148C139.135 27.5651 138.943 26.9987 138.572 26.6016C138.201 26.1979 137.7 25.9961 137.068 25.9961ZM137.488 35.1953C135.73 35.1953 134.357 34.7103 133.367 33.7402C132.378 32.7702 131.883 31.3965 131.883 29.6191C131.883 27.7897 132.339 26.377 133.25 25.3809C134.168 24.3783 135.434 23.877 137.049 23.877C138.592 23.877 139.793 24.3164 140.652 25.1953C141.512 26.0742 141.941 27.2884 141.941 28.8379V30.2832H134.9C134.933 31.1296 135.184 31.7904 135.652 32.2656C136.121 32.7409 136.779 32.9785 137.625 32.9785C138.283 32.9785 138.904 32.9102 139.49 32.7734C140.076 32.6367 140.688 32.4186 141.326 32.1191V34.4238C140.805 34.6842 140.249 34.8763 139.656 35C139.064 35.1302 138.341 35.1953 137.488 35.1953ZM154.457 23.0371C153.318 23.0371 152.436 23.4668 151.811 24.3262C151.186 25.179 150.873 26.3704 150.873 27.9004C150.873 31.084 152.068 32.6758 154.457 32.6758C155.46 32.6758 156.674 32.4251 158.1 31.9238V34.4629C156.928 34.9512 155.62 35.1953 154.174 35.1953C152.097 35.1953 150.509 34.5671 149.409 33.3105C148.308 32.0475 147.758 30.2376 147.758 27.8809C147.758 26.3965 148.028 25.0977 148.569 23.9844C149.109 22.8646 149.884 22.0085 150.893 21.416C151.909 20.8171 153.097 20.5176 154.457 20.5176C155.844 20.5176 157.237 20.8529 158.637 21.5234L157.661 23.9844C157.127 23.7305 156.59 23.5091 156.049 23.3203C155.509 23.1315 154.978 23.0371 154.457 23.0371ZM162.586 29.5215C162.586 30.6022 162.761 31.4193 163.113 31.9727C163.471 32.526 164.05 32.8027 164.851 32.8027C165.645 32.8027 166.215 32.5293 166.56 31.9824C166.912 31.429 167.088 30.6087 167.088 29.5215C167.088 28.4408 166.912 27.6302 166.56 27.0898C166.209 26.5495 165.632 26.2793 164.832 26.2793C164.037 26.2793 163.464 26.5495 163.113 27.0898C162.761 27.6237 162.586 28.4342 162.586 29.5215ZM170.134 29.5215C170.134 31.2988 169.666 32.6888 168.728 33.6914C167.791 34.694 166.485 35.1953 164.812 35.1953C163.764 35.1953 162.839 34.9674 162.039 34.5117C161.238 34.0495 160.623 33.3887 160.193 32.5293C159.763 31.6699 159.548 30.6673 159.548 29.5215C159.548 27.7376 160.014 26.3509 160.945 25.3613C161.876 24.3717 163.185 23.877 164.871 23.877C165.919 23.877 166.843 24.1048 167.644 24.5605C168.445 25.0163 169.06 25.6706 169.49 26.5234C169.92 27.3763 170.134 28.3757 170.134 29.5215ZM174.874 35H171.895V19.8047H174.874V35ZM179.682 29.5215C179.682 30.6022 179.857 31.4193 180.209 31.9727C180.567 32.526 181.146 32.8027 181.947 32.8027C182.742 32.8027 183.311 32.5293 183.656 31.9824C184.008 31.429 184.184 30.6087 184.184 29.5215C184.184 28.4408 184.008 27.6302 183.656 27.0898C183.305 26.5495 182.729 26.2793 181.928 26.2793C181.133 26.2793 180.561 26.5495 180.209 27.0898C179.857 27.6237 179.682 28.4342 179.682 29.5215ZM187.23 29.5215C187.23 31.2988 186.762 32.6888 185.824 33.6914C184.887 34.694 183.581 35.1953 181.908 35.1953C180.86 35.1953 179.936 34.9674 179.135 34.5117C178.334 34.0495 177.719 33.3887 177.289 32.5293C176.859 31.6699 176.645 30.6673 176.645 29.5215C176.645 27.7376 177.11 26.3509 178.041 25.3613C178.972 24.3717 180.281 23.877 181.967 23.877C183.015 23.877 183.939 24.1048 184.74 24.5605C185.541 25.0163 186.156 25.6706 186.586 26.5234C187.016 27.3763 187.23 28.3757 187.23 29.5215ZM195.085 23.877C195.489 23.877 195.824 23.9062 196.091 23.9648L195.866 26.7578C195.626 26.6927 195.333 26.6602 194.988 26.6602C194.037 26.6602 193.295 26.9043 192.761 27.3926C192.234 27.8809 191.97 28.5645 191.97 29.4434V35H188.991V24.082H191.247L191.687 25.918H191.833C192.172 25.306 192.627 24.8145 193.2 24.4434C193.78 24.0658 194.408 23.877 195.085 23.877Z" fill="black"/>
<circle cx="26.1506" cy="26.1506" r="25" transform="rotate(30 26.1506 26.1506)" fill="#1E2B67"/>
<circle cx="29.8147" cy="28.2663" r="17.6923" transform="rotate(30 29.8147 28.2663)" fill="#1D6FF9"/>
<circle cx="33.8116" cy="30.5738" r="10" transform="rotate(30 33.8116 30.5738)" fill="#A8C8FC"/>
</g>
<defs>
<clipPath id="clip0_77_94">
<rect width="199" height="52" fill="white"/>
</clipPath>
</defs>
</svg>
