<svg width="295" height="52" viewBox="0 0 295 52" fill="none" xmlns="http://www.w3.org/2000/svg">
<g clip-path="url(#clip0_77_94)">
<path d="M72.4414 22.1172C72.168 20.9375 71.5 20.1133 70.4375 19.6445C69.8438 19.3867 69.1836 19.2578 68.457 19.2578C67.0664 19.2578 65.9219 19.7852 65.0234 20.8398C64.1328 21.8867 63.6875 23.4648 63.6875 25.5742C63.6875 27.6992 64.1719 29.2031 65.1406 30.0859C66.1094 30.9688 67.2109 31.4102 68.4453 31.4102C69.6562 31.4102 70.6484 31.0625 71.4219 30.3672C72.1953 29.6641 72.6719 28.7461 72.8516 27.6133H68.8555V24.7305H76.0508V34H73.6602L73.2969 31.8438C72.6016 32.6641 71.9766 33.2422 71.4219 33.5781C70.4688 34.1641 69.2969 34.457 67.9062 34.457C65.6172 34.457 63.7422 33.6641 62.2812 32.0781C60.7578 30.4844 59.9961 28.3047 59.9961 25.5391C59.9961 22.7422 60.7656 20.5 62.3047 18.8125C63.8438 17.125 65.8789 16.2812 68.4102 16.2812C70.6055 16.2812 72.3672 16.8398 73.6953 17.957C75.0312 19.0664 75.7969 20.4531 75.9922 22.1172H72.4414ZM83.7973 23.6406C83.0239 23.6406 82.4223 23.8828 81.9927 24.3672C81.5708 24.8516 81.3052 25.5078 81.1958 26.3359H86.3872C86.3325 25.4531 86.063 24.7852 85.5786 24.332C85.102 23.8711 84.5083 23.6406 83.7973 23.6406ZM83.7973 20.8867C84.8598 20.8867 85.8169 21.0859 86.6684 21.4844C87.52 21.8828 88.2231 22.5117 88.7778 23.3711C89.2778 24.1289 89.602 25.0078 89.7505 26.0078C89.8364 26.5938 89.8716 27.4375 89.8559 28.5391H81.1138C81.1606 29.8203 81.563 30.7188 82.3208 31.2344C82.7817 31.5547 83.3364 31.7148 83.9848 31.7148C84.6723 31.7148 85.2309 31.5195 85.6606 31.1289C85.895 30.918 86.102 30.625 86.2817 30.25H89.6919C89.6059 31.0078 89.2114 31.7773 88.5083 32.5586C87.4145 33.8008 85.8833 34.4219 83.9145 34.4219C82.2895 34.4219 80.8559 33.8984 79.6138 32.8516C78.3716 31.8047 77.7505 30.1016 77.7505 27.7422C77.7505 25.5312 78.3091 23.8359 79.4263 22.6562C80.5513 21.4766 82.0083 20.8867 83.7973 20.8867ZM98.7158 20.9219C100.036 20.9219 101.114 21.2695 101.95 21.9648C102.794 22.6523 103.216 23.7969 103.216 25.3984V34H99.7939V26.2305C99.7939 25.5586 99.7041 25.043 99.5244 24.6836C99.1963 24.0273 98.5713 23.6992 97.6494 23.6992C96.5166 23.6992 95.7392 24.1797 95.3173 25.1406C95.0986 25.6484 94.9892 26.2969 94.9892 27.0859V34H91.6611V21.25H94.8838V23.1133C95.3134 22.457 95.7197 21.9844 96.1025 21.6953C96.79 21.1797 97.6611 20.9219 98.7158 20.9219ZM111.56 31.6445C112.537 31.6445 113.287 31.2969 113.81 30.6016C114.333 29.9062 114.595 28.918 114.595 27.6367C114.595 26.3555 114.333 25.3711 113.81 24.6836C113.287 23.9883 112.537 23.6406 111.56 23.6406C110.583 23.6406 109.83 23.9883 109.298 24.6836C108.775 25.3711 108.513 26.3555 108.513 27.6367C108.513 28.918 108.775 29.9062 109.298 30.6016C109.83 31.2969 110.583 31.6445 111.56 31.6445ZM118.099 27.6367C118.099 29.5117 117.56 31.1172 116.482 32.4531C115.404 33.7812 113.767 34.4453 111.572 34.4453C109.376 34.4453 107.74 33.7812 106.662 32.4531C105.583 31.1172 105.044 29.5117 105.044 27.6367C105.044 25.793 105.583 24.1953 106.662 22.8438C107.74 21.4922 109.376 20.8164 111.572 20.8164C113.767 20.8164 115.404 21.4922 116.482 22.8438C117.56 24.1953 118.099 25.793 118.099 27.6367ZM134.295 20.9453C134.857 20.9453 135.412 21.0547 135.959 21.2734C136.506 21.4922 137.002 21.875 137.447 22.4219C137.807 22.8672 138.049 23.4141 138.174 24.0625C138.252 24.4922 138.291 25.1211 138.291 25.9492L138.268 34H134.846V25.8672C134.846 25.3828 134.768 24.9844 134.611 24.6719C134.314 24.0781 133.768 23.7812 132.971 23.7812C132.049 23.7812 131.412 24.1641 131.06 24.9297C130.881 25.3359 130.791 25.8242 130.791 26.3945V34H127.428V26.3945C127.428 25.6367 127.35 25.0859 127.193 24.7422C126.912 24.125 126.361 23.8164 125.541 23.8164C124.588 23.8164 123.947 24.125 123.619 24.7422C123.439 25.0938 123.35 25.6172 123.35 26.3125V34H119.963V21.25H123.209V23.1133C123.623 22.4492 124.014 21.9766 124.381 21.6953C125.029 21.1953 125.869 20.9453 126.9 20.9453C127.877 20.9453 128.666 21.1602 129.268 21.5898C129.752 21.9883 130.119 22.5 130.369 23.125C130.807 22.375 131.35 21.8242 131.998 21.4727C132.685 21.1211 133.451 20.9453 134.295 20.9453ZM145.932 23.6406C145.159 23.6406 144.557 23.8828 144.127 24.3672C143.705 24.8516 143.44 25.5078 143.33 26.3359H148.522C148.467 25.4531 148.198 24.7852 147.713 24.332C147.237 23.8711 146.643 23.6406 145.932 23.6406ZM145.932 20.8867C146.995 20.8867 147.952 21.0859 148.803 21.4844C149.655 21.8828 150.358 22.5117 150.912 23.3711C151.412 24.1289 151.737 25.0078 151.885 26.0078C151.971 26.5938 152.006 27.4375 151.991 28.5391H143.248C143.295 29.8203 143.698 30.7188 144.455 31.2344C144.916 31.5547 145.471 31.7148 146.12 31.7148C146.807 31.7148 147.366 31.5195 147.795 31.1289C148.03 30.918 148.237 30.625 148.416 30.25H151.827C151.741 31.0078 151.346 31.7773 150.643 32.5586C149.549 33.8008 148.018 34.4219 146.049 34.4219C144.424 34.4219 142.991 33.8984 141.748 32.8516C140.506 31.8047 139.885 30.1016 139.885 27.7422C139.885 25.5312 140.444 23.8359 141.561 22.6562C142.686 21.4766 144.143 20.8867 145.932 20.8867ZM159.492 25.5039C159.492 22.4883 160.3 20.1641 161.917 18.5312C163.324 17.1094 165.113 16.3984 167.285 16.3984C170.191 16.3984 172.316 17.3516 173.66 19.2578C174.402 20.3281 174.8 21.4023 174.855 22.4805H171.245C171.011 21.6523 170.71 21.0273 170.343 20.6055C169.687 19.8555 168.714 19.4805 167.425 19.4805C166.113 19.4805 165.077 20.0117 164.32 21.0742C163.562 22.1289 163.183 23.625 163.183 25.5625C163.183 27.5 163.581 28.9531 164.378 29.9219C165.183 30.8828 166.202 31.3633 167.437 31.3633C168.702 31.3633 169.667 30.9492 170.331 30.1211C170.699 29.6758 171.003 29.0078 171.245 28.1172H174.82C174.507 30 173.706 31.5312 172.417 32.7109C171.136 33.8906 169.492 34.4805 167.484 34.4805C164.999 34.4805 163.046 33.6836 161.624 32.0898C160.202 30.4883 159.492 28.293 159.492 25.5039ZM182.566 31.6445C183.543 31.6445 184.293 31.2969 184.816 30.6016C185.34 29.9062 185.601 28.918 185.601 27.6367C185.601 26.3555 185.34 25.3711 184.816 24.6836C184.293 23.9883 183.543 23.6406 182.566 23.6406C181.59 23.6406 180.836 23.9883 180.305 24.6836C179.781 25.3711 179.519 26.3555 179.519 27.6367C179.519 28.918 179.781 29.9062 180.305 30.6016C180.836 31.2969 181.59 31.6445 182.566 31.6445ZM189.105 27.6367C189.105 29.5117 188.566 31.1172 187.488 32.4531C186.41 33.7812 184.773 34.4453 182.578 34.4453C180.383 34.4453 178.746 33.7812 177.668 32.4531C176.59 31.1172 176.051 29.5117 176.051 27.6367C176.051 25.793 176.59 24.1953 177.668 22.8438C178.746 21.4922 180.383 20.8164 182.578 20.8164C184.773 20.8164 186.41 21.4922 187.488 22.8438C188.566 24.1953 189.105 25.793 189.105 27.6367ZM194.438 34H191.098V16.7266H194.438V34ZM202.958 31.6445C203.934 31.6445 204.684 31.2969 205.208 30.6016C205.731 29.9062 205.993 28.918 205.993 27.6367C205.993 26.3555 205.731 25.3711 205.208 24.6836C204.684 23.9883 203.934 23.6406 202.958 23.6406C201.981 23.6406 201.227 23.9883 200.696 24.6836C200.173 25.3711 199.911 26.3555 199.911 27.6367C199.911 28.918 200.173 29.9062 200.696 30.6016C201.227 31.2969 201.981 31.6445 202.958 31.6445ZM209.497 27.6367C209.497 29.5117 208.958 31.1172 207.88 32.4531C206.802 33.7812 205.165 34.4453 202.97 34.4453C200.774 34.4453 199.137 33.7812 198.059 32.4531C196.981 31.1172 196.442 29.5117 196.442 27.6367C196.442 25.793 196.981 24.1953 198.059 22.8438C199.137 21.4922 200.774 20.8164 202.97 20.8164C205.165 20.8164 206.802 21.4922 207.88 22.8438C208.958 24.1953 209.497 25.793 209.497 27.6367ZM218.357 20.9219C218.419 20.9219 218.47 20.9258 218.509 20.9336C218.556 20.9336 218.654 20.9375 218.802 20.9453V24.3672C218.591 24.3438 218.404 24.3281 218.24 24.3203C218.075 24.3125 217.943 24.3086 217.841 24.3086C216.497 24.3086 215.595 24.7461 215.134 25.6211C214.876 26.1133 214.747 26.8711 214.747 27.8945V34H211.384V21.2266H214.572V23.4531C215.087 22.6016 215.536 22.0195 215.919 21.707C216.544 21.1836 217.357 20.9219 218.357 20.9219ZM229.373 28.668C229.483 29.457 229.697 30.0469 230.018 30.4375C230.604 31.1484 231.608 31.5039 233.03 31.5039C233.881 31.5039 234.572 31.4102 235.104 31.2227C236.112 30.8633 236.615 30.1953 236.615 29.2188C236.615 28.6484 236.365 28.207 235.865 27.8945C235.365 27.5898 234.58 27.3203 233.51 27.0859L231.682 26.6758C229.885 26.2695 228.643 25.8281 227.955 25.3516C226.791 24.5547 226.209 23.3086 226.209 21.6133C226.209 20.0664 226.772 18.7812 227.897 17.7578C229.022 16.7344 230.674 16.2227 232.854 16.2227C234.674 16.2227 236.225 16.707 237.506 17.6758C238.795 18.6367 239.471 20.0352 239.533 21.8711H236.065C236.002 20.832 235.549 20.0938 234.705 19.6562C234.143 19.3672 233.444 19.2227 232.608 19.2227C231.678 19.2227 230.936 19.4102 230.381 19.7852C229.826 20.1602 229.549 20.6836 229.549 21.3555C229.549 21.9727 229.822 22.4336 230.369 22.7383C230.721 22.9414 231.471 23.1797 232.619 23.4531L235.596 24.168C236.901 24.4805 237.885 24.8984 238.549 25.4219C239.58 26.2344 240.096 27.4102 240.096 28.9492C240.096 30.5273 239.49 31.8398 238.28 32.8867C237.076 33.9258 235.373 34.4453 233.17 34.4453C230.92 34.4453 229.151 33.9336 227.862 32.9102C226.572 31.8789 225.928 30.4648 225.928 28.668H229.373ZM250.819 27.6133C250.819 26.6289 250.592 25.7578 250.139 25C249.694 24.2422 248.967 23.8633 247.96 23.8633C246.749 23.8633 245.917 24.4375 245.464 25.5859C245.229 26.1953 245.112 26.9688 245.112 27.9062C245.112 29.3906 245.507 30.4336 246.296 31.0352C246.764 31.3867 247.319 31.5625 247.96 31.5625C248.889 31.5625 249.596 31.2031 250.081 30.4844C250.573 29.7656 250.819 28.8086 250.819 27.6133ZM248.921 20.9453C250.413 20.9453 251.675 21.4961 252.706 22.5977C253.745 23.6992 254.264 25.3164 254.264 27.4492C254.264 29.6992 253.757 31.4141 252.741 32.5938C251.733 33.7734 250.432 34.3633 248.839 34.3633C247.823 34.3633 246.979 34.1094 246.307 33.6016C245.94 33.3203 245.581 32.9102 245.229 32.3711V39.0273H241.925V21.2266H245.124V23.1133C245.483 22.5586 245.866 22.1211 246.272 21.8008C247.014 21.2305 247.897 20.9453 248.921 20.9453ZM263.253 27.7891C263.042 27.9219 262.827 28.0312 262.609 28.1172C262.398 28.1953 262.105 28.2695 261.73 28.3398L260.98 28.4805C260.277 28.6055 259.773 28.7578 259.468 28.9375C258.952 29.2422 258.695 29.7148 258.695 30.3555C258.695 30.9258 258.851 31.3398 259.163 31.5977C259.484 31.8477 259.87 31.9727 260.323 31.9727C261.042 31.9727 261.702 31.7617 262.304 31.3398C262.913 30.918 263.23 30.1484 263.253 29.0312V27.7891ZM261.226 26.2305C261.843 26.1523 262.284 26.0547 262.55 25.9375C263.027 25.7344 263.265 25.418 263.265 24.9883C263.265 24.4648 263.081 24.1055 262.714 23.9102C262.355 23.707 261.823 23.6055 261.12 23.6055C260.331 23.6055 259.773 23.8008 259.445 24.1914C259.21 24.4805 259.054 24.8711 258.976 25.3633H255.753C255.823 24.2461 256.136 23.3281 256.691 22.6094C257.573 21.4844 259.089 20.9219 261.238 20.9219C262.636 20.9219 263.878 21.1992 264.964 21.7539C266.05 22.3086 266.593 23.3555 266.593 24.8945V30.7539C266.593 31.1602 266.601 31.6523 266.616 32.2305C266.64 32.668 266.706 32.9648 266.816 33.1211C266.925 33.2773 267.089 33.4062 267.308 33.5078V34H263.675C263.573 33.7422 263.503 33.5 263.464 33.2734C263.425 33.0469 263.394 32.7891 263.37 32.5C262.909 33 262.378 33.4258 261.777 33.7773C261.058 34.1914 260.245 34.3984 259.339 34.3984C258.183 34.3984 257.226 34.0703 256.468 33.4141C255.718 32.75 255.343 31.8125 255.343 30.6016C255.343 29.0312 255.948 27.8945 257.159 27.1914C257.823 26.8086 258.8 26.5352 260.089 26.3711L261.226 26.2305ZM276.718 25.8086C276.656 25.332 276.496 24.9023 276.238 24.5195C275.863 24.0039 275.281 23.7461 274.492 23.7461C273.367 23.7461 272.597 24.3047 272.183 25.4219C271.965 26.0156 271.855 26.8047 271.855 27.7891C271.855 28.7266 271.965 29.4805 272.183 30.0508C272.582 31.1133 273.332 31.6445 274.433 31.6445C275.215 31.6445 275.769 31.4336 276.097 31.0117C276.425 30.5898 276.625 30.043 276.695 29.3711H280.105C280.027 30.3867 279.66 31.3477 279.004 32.2539C277.957 33.7148 276.406 34.4453 274.351 34.4453C272.297 34.4453 270.785 33.8359 269.816 32.6172C268.847 31.3984 268.363 29.8164 268.363 27.8711C268.363 25.6758 268.898 23.9688 269.968 22.75C271.039 21.5312 272.515 20.9219 274.398 20.9219C276 20.9219 277.308 21.2812 278.324 22C279.347 22.7188 279.953 23.9883 280.14 25.8086H276.718ZM287.008 23.6406C286.235 23.6406 285.633 23.8828 285.203 24.3672C284.781 24.8516 284.516 25.5078 284.406 26.3359H289.598C289.543 25.4531 289.274 24.7852 288.789 24.332C288.313 23.8711 287.719 23.6406 287.008 23.6406ZM287.008 20.8867C288.07 20.8867 289.027 21.0859 289.879 21.4844C290.731 21.8828 291.434 22.5117 291.988 23.3711C292.488 24.1289 292.813 25.0078 292.961 26.0078C293.047 26.5938 293.082 27.4375 293.067 28.5391H284.324C284.371 29.8203 284.774 30.7188 285.531 31.2344C285.992 31.5547 286.547 31.7148 287.195 31.7148C287.883 31.7148 288.442 31.5195 288.871 31.1289C289.106 30.918 289.313 30.625 289.492 30.25H292.902C292.817 31.0078 292.422 31.7773 291.719 32.5586C290.625 33.8008 289.094 34.4219 287.125 34.4219C285.5 34.4219 284.067 33.8984 282.824 32.8516C281.582 31.8047 280.961 30.1016 280.961 27.7422C280.961 25.5312 281.52 23.8359 282.637 22.6562C283.762 21.4766 285.219 20.8867 287.008 20.8867Z" fill="black"/>
<circle cx="26.1506" cy="26.1506" r="25" transform="rotate(30 26.1506 26.1506)" fill="#1E2B67"/>
<circle cx="29.8147" cy="28.2663" r="17.6923" transform="rotate(30 29.8147 28.2663)" fill="#4983F4"/>
<circle cx="33.8116" cy="30.5738" r="10" transform="rotate(30 33.8116 30.5738)" fill="white"/>
</g>
<defs>
<clipPath id="clip0_77_94">
<rect width="295" height="52" fill="white"/>
</clipPath>
</defs>
</svg>
